# xmcd CD database file
#
# Track frame offsets:
#	150
#	22997
#	50755
#	74682
#	99595
#	119755
#	141680
#	164247
#	187207
#	207177
#	226975
#	250840
#	270410
#	298200
#
# Disc length: 4308 seconds
#
# Revision: 0
# Processed by: cddbd v1.5.1PL0 Copyright (c) Steve Scherf et al.
# Submitted via: CDex 1.51
#
DISCID=eb10d20e
DTITLE=Various Artist - Heaven -EUROBEAT MEETS HEALING STYLE-
DYEAR=2001
DGENRE=Vocal
TTITLE0=NOTHING'S GONNA TAKE MY LOVE FROM YOU
TTITLE1=SUMMER TIME
TTITLE2=MINE IS YOUR LOVE
TTITLE3=FANTASY
TTITLE4=TOUCH ME TOUCH ME
TTITLE5=KING AND QUEEN
TTITLE6=IT'S A MIRACLE
TTITLE7=TRY ME
TTITLE8=TASTE OF LOVE
TTITLE9=SOUL GASOLINE
TTITLE10=FANTASY
TTITLE11=TRY ME
TTITLE12=NOTHING CHANGED
TTITLE13=STAY THE NIGHT
EXTD=YEAR: 2001
EXTT0=
EXTT1=
EXTT2=
EXTT3=
EXTT4=
EXTT5=
EXTT6=
EXTT7=
EXTT8=
EXTT9=
EXTT10=
EXTT11=
EXTT12=
EXTT13=
PLAYORDER=
